<svg width="266" height="37" viewBox="0 0 266 37" fill="none" xmlns="http://www.w3.org/2000/svg">
    <path d="M26.44 36H0.92V33.76L4.68 30.8V8.32L0.24 7.16L1.56 4.56H15.72V6.8L11.92 9.76V32.96H20.92L27.12 24L29.32 24.92V36.72L26.44 36ZM46.235 14.04C48.2083 14.04 49.9683 14.5067 51.515 15.44C53.0617 16.3467 54.2617 17.6 55.115 19.2C55.995 20.8 56.435 22.5733 56.435 24.52C56.435 26.6267 55.755 28.6 54.395 30.44C53.035 32.2533 51.3283 33.7067 49.275 34.8C47.2483 35.8667 45.2883 36.4 43.395 36.4C41.4483 36.4 39.6883 35.9467 38.115 35.04C36.5683 34.1067 35.355 32.84 34.475 31.24C33.6217 29.64 33.195 27.8667 33.195 25.92C33.195 23.8133 33.875 21.8533 35.235 20.04C36.595 18.2 38.2883 16.7467 40.315 15.68C42.3683 14.5867 44.3417 14.04 46.235 14.04ZM43.915 18.68C42.795 18.68 41.9417 19.1333 41.355 20.04C40.795 20.92 40.515 22.24 40.515 24C40.515 26.24 40.9683 28.1067 41.875 29.6C42.7817 31.0667 44.0617 31.8 45.715 31.8C46.8083 31.8 47.635 31.3467 48.195 30.44C48.7817 29.5067 49.075 28.16 49.075 26.4C49.075 24.16 48.6217 22.32 47.715 20.88C46.8083 19.4133 45.5417 18.68 43.915 18.68ZM74.9472 0.679999C75.8805 0.679999 76.9472 0.799999 78.1472 1.04C79.3472 1.28 80.2139 1.54666 80.7472 1.84V9H78.2272C77.5872 7.82667 76.7872 6.90667 75.8272 6.24C74.8939 5.54667 73.9472 5.2 72.9872 5.2C72.0005 5.2 71.2405 5.61333 70.7072 6.44C70.2005 7.26667 69.9472 8.46667 69.9472 10.04V15.64H76.6672V18.28H69.9472V31.8L76.0272 33.4L74.7472 36H59.5872V33.76L63.1472 30.76V18.28H58.8672V15.64H63.1472V12.56C63.1472 10.4533 63.7605 8.49333 64.9872 6.68C66.2139 4.84 67.7472 3.38666 69.5872 2.32C71.4539 1.22667 73.2405 0.679999 74.9472 0.679999ZM92.3641 36.08C91.4574 36.2933 90.3774 36.4 89.1241 36.4C86.5641 36.4 84.6841 35.8267 83.4841 34.68C82.3107 33.5067 81.7241 31.7067 81.7241 29.28V18.28H77.4041V16.16L86.0041 6.8H88.5241V15.64H95.7241V18.28H88.5241V29C88.5241 30.84 89.5641 31.76 91.6441 31.76C92.1774 31.76 92.6974 31.68 93.2041 31.52C93.7374 31.3333 94.4041 31.0267 95.2041 30.6L96.4041 32.88L92.3641 36.08ZM137.743 14.08L135.543 14.96L130.463 7.64H120.983V18.44H125.743L128.663 13.96H130.903V25.68L128.303 26.96L125.703 21.52H120.983V31.92L127.943 33.44L126.623 36.04H109.983V33.8L113.743 30.84V8.48L109.303 7.16L110.623 4.56H134.863L137.743 3.88V14.08ZM152.833 36H140.193V33.76L143.753 30.76V8.88L140.193 6.52V4.28L148.033 1.08H150.553V32.2L154.153 33.4L152.833 36ZM170.141 14.04C172.115 14.04 173.875 14.5067 175.421 15.44C176.968 16.3467 178.168 17.6 179.021 19.2C179.901 20.8 180.341 22.5733 180.341 24.52C180.341 26.6267 179.661 28.6 178.301 30.44C176.941 32.2533 175.235 33.7067 173.181 34.8C171.155 35.8667 169.195 36.4 167.301 36.4C165.355 36.4 163.595 35.9467 162.021 35.04C160.475 34.1067 159.261 32.84 158.381 31.24C157.528 29.64 157.101 27.8667 157.101 25.92C157.101 23.8133 157.781 21.8533 159.141 20.04C160.501 18.2 162.195 16.7467 164.221 15.68C166.275 14.5867 168.248 14.04 170.141 14.04ZM167.821 18.68C166.701 18.68 165.848 19.1333 165.261 20.04C164.701 20.92 164.421 22.24 164.421 24C164.421 26.24 164.875 28.1067 165.781 29.6C166.688 31.0667 167.968 31.8 169.621 31.8C170.715 31.8 171.541 31.3467 172.101 30.44C172.688 29.5067 172.981 28.16 172.981 26.4C172.981 24.16 172.528 22.32 171.621 20.88C170.715 19.4133 169.448 18.68 167.821 18.68ZM219.793 16.68L210.473 36H205.433L201.913 27.4L197.353 36H192.313L186.353 21.52L182.473 19.28V17.04L191.313 13.68L192.833 19.72L197.193 30.32L200.433 23.84L199.513 21.56L195.593 19.28V17.04L204.433 13.68L205.953 19.72L210.273 30.12L214.433 21.04L208.473 17.04L209.793 14.44H219.793V16.68ZM234.985 14.04C237.785 14.04 239.945 15.1067 241.465 17.24C243.012 19.3733 243.758 22.3333 243.705 26.12H229.305C229.572 27.7467 230.145 29.0533 231.025 30.04C231.905 31 233.052 31.48 234.465 31.48C236.332 31.48 239.012 30.5467 242.505 28.68L243.705 30.96L237.625 35.8C236.052 36.2 234.225 36.4 232.145 36.4C230.198 36.4 228.438 35.9467 226.865 35.04C225.318 34.1067 224.105 32.84 223.225 31.24C222.372 29.64 221.945 27.8667 221.945 25.92C221.945 23.8133 222.625 21.8533 223.985 20.04C225.345 18.2 227.038 16.7467 229.065 15.68C231.118 14.5867 233.092 14.04 234.985 14.04ZM232.785 18.68C231.612 18.68 230.732 19.08 230.145 19.88C229.558 20.6533 229.238 21.8533 229.185 23.48H236.825C236.612 21.8267 236.212 20.6133 235.625 19.84C235.065 19.0667 234.105 18.68 232.745 18.68H232.785ZM261.27 36.08C260.364 36.2933 259.284 36.4 258.03 36.4C255.47 36.4 253.59 35.8267 252.39 34.68C251.217 33.5067 250.63 31.7067 250.63 29.28V18.28H246.31V16.16L254.91 6.8H257.43V15.64H264.63V18.28H257.43V29C257.43 30.84 258.47 31.76 260.55 31.76C261.084 31.76 261.604 31.68 262.11 31.52C262.644 31.3333 263.31 31.0267 264.11 30.6L265.31 32.88L261.27 36.08Z" fill="#D17D2F"/>
</svg>
